<svg version="1" xmlns="http://www.w3.org/2000/svg" width="762.667" height="762.667" viewBox="0 0 572.000000 572.000000"><path d="M75.3 56c-.3 1.1-.9 2-1.4 2-.5 0-.9.7-.9 1.5s-.5 1.5-1.1 1.5c-.8 0-.7.5.1 1.5.7.9 1 1.8.6 2.2-.3.3-.6.1-.6-.6s-.5-.9-1-.6c-.8.5-.7 1.1.1 2.1.9 1.1.9 1.4-.1 1.4s-1 .3 0 1.5c1.1 1.3 1 1.4-.4.9-.9-.3-1.6-.1-1.6.5s.4 1.1.8 1.1c.5 0 .9.7.9 1.5s-.5 1.5-1 1.5c-.6 0-.8.3-.5.6.4.3.2 2-.3 3.7-1.2 4.2-2.2 16.9-2.3 28.9 0 5.7-.4 9.4-1 9.1-.5-.4-.6 0-.1.8 1 1.5 1.1 3.1 1.9 24.4.6 13.6 2.4 29.7 4.2 37.2l.7 2.8-2.3-2c-1.3-1.1-2-1.4-1.5-.6.5.9.3 1.2-.6.9-1.9-.6-6-6.8-5.3-7.9.3-.5 0-.9-.6-.9s-.8-.5-.4-1.1c.4-.8 0-.8-1.5 0-1.6.9-2.1.9-2.1 0 0-.7-.3-.9-.7-.6-.3.4.2 1.6 1.2 2.7s1.3 2 .7 2c-1.2 0-1 .9 3 15 1.7 5.8 3.2 11.8 3.5 13.5.9 6.1 10.5 42.7 15 57.5.9 3 1.8 5.9 1.9 6.5.3 1.5 5 15.3 7.4 21.2 1.1 2.9 1.7 5.3 1.2 5.3-.4 0-.2.4.3.8.6.4 2.4 3.8 4 7.7 1.5 3.8 4.4 10.1 6.2 13.9 3.4 6.7 3.4 6.9 2.1 12-.7 2.8-1.3 5.5-1.3 6.1-.1.5-.7 2.7-1.4 4.7-.7 2.1-.9 4.3-.5 4.9.4.7.3.9-.3.6-1-.7-2.3 4-2.4 9-.1 1.3-.6 2-1.2 1.6-.6-.4-.8.3-.3 2 .3 1.5.1 2.9-.5 3.2-.6.4-.8 1.3-.5 2.1.3.8.1 1.4-.5 1.4s-.9.7-.6 1.5c.4.8.3 1.7-.2 1.9-.4.3-.9 1.8-.9 3.3-.2 2.7-.9 6.8-1.2 6.8-.3 0-1 3.9-1.4 7.1-.1 1.7-.5 3.5-.8 4-.3.5-.5 2.1-.4 3.6.1 1.6-.1 2.8-.5 2.8s-.6 1.8-.5 3.9c0 2.2-.2 3.7-.6 3.5-.4-.3-.7.4-.7 1.3 0 1-.3 8.1-.5 15.8l-.5 14 3.7 7.5c2 4.1 3.7 8.1 3.8 8.7.5 2.6 4.6 8.2 8.1 11 2 1.5 4.1 3.3 4.7 3.9 7.1 6.8 25.9 18.3 30.5 18.7 1.1.1 2.1.5 2.1 1 0 .4.4.6.9.2.5-.3 1.2-.1 1.6.5.3.5 1.6 1 2.7 1s2.7.8 3.5 1.7c.8 1 1.2 1.3.9.6-.4-.6-.3-1.4.2-1.7.4-.2.8.6.8 1.9 0 1.3-.3 2.2-.6 2-.6-.4 2.9 14.7 5 21.1.7 2.1 1.8 4.6 2.6 5.4.7.9 1.2 2.4 1 3.5-.2 1.1.5 3.2 1.6 4.8 1.1 1.5 1.6 2.7 1.2 2.7-.4 0 .1.9 1 1.9 1.5 1.6 2.1 1.8 3.7.8 2.7-1.7 3.4-4.4 4.2-14.7.2-1.9.7-4.1 1.1-4.9.6-1 .5-1.2-.3-.7s-.9.1-.1-1.6c1.2-3 3-15.6 2.4-17.2-.3-.9 1.1-1 5.8-.5 9.3.9 23.8.4 43.9-1.6 1.5-.1 3.2-.6 3.9-1 .9-.6 1.1-.4.5.5-.5.8-.4 1.1.2.7 1.2-.7 4.4-1.3 13.8-2.2 3.3-.4 7.6-.8 9.5-1 1.9-.2 5.1-.7 7-1 1.9-.3 4.4-.8 5.5-.9 1.1-.2 2-.4 2-.6 0-.1.9-.3 2-.4 4.7-.6 10.5-1.9 18.4-4.1 4.6-1.4 8.8-2.2 9.2-1.9.5.3.9 0 .9-.7s.3-1 .6-.6c.4.3 1.9 0 3.4-.8 2.3-1.2 2.7-1.2 2.7 0 0 2 3.5 9.5 4.2 9.1.3-.2.7 1.9.9 4.7.1 2.9 1.2 7.2 2.4 9.7 1.1 2.5 3.6 8.1 5.4 12.5 2.3 5.8 3.4 7.5 3.9 6.2.4-.9.5-2.3.2-3.1-.3-.7-.1-1.8.4-2.3.5-.5 1.1-5.1 1.5-10.2.7-11.4 1-13 2.8-15 1.9-2.2 3.3-15.6 1.7-17.5-.9-1.1-.5-1.6 2.1-2.6 1.8-.7 3.5-1.3 3.8-1.4 1.5-.4 13.1-5.1 17-7 2.5-1.1 7.2-4.8 10.6-8.1 4.8-4.8 6.6-7.5 8.8-13.3 1.5-3.9 3.2-7 3.7-6.6.5.3.9.1.9-.5s.7-.7 1.7-.4c1.1.4 1.4.3.9-.5-.4-.7-.1-1.2.9-1.2.8 0 1.8-.7 2.1-1.5.4-.8 1-1.2 1.5-.9 1 .6 20.4-9.2 23.3-11.8 1.1-1 2.3-1.8 2.7-1.8 1.2 0 8.2-4.9 9.1-6.3.4-.7.8-.9.8-.4 0 .9 10.9-7.9 12.7-10.2.7-.9 1.3-1.3 1.3-.9 0 .5 1.8-1 4.1-3.2s4.5-3.7 5-3.4c.5.3.6-.2.3-1-.6-1.6 2.8-4 4.2-2.8.5.4.3 0-.4-1-1-1.2-1-1.8-.1-2.4.8-.4.9-.3.5.4s-.2 1.2.3 1.2c.6 0 1.1-.3 1.1-.8 0-.4 2.6-2.3 5.8-4.1 6.6-4 14.5-9.7 18.5-13.5 1.5-1.4 6-5.1 10-8.3 10.8-8.6 25.7-24.3 25.7-27.2 0-.7.5-.9 1-.6.6.3 1 .2 1-.3s1.1-2.2 2.5-3.8c3.2-3.7 3.4-3.9 7.5-9.9 1.8-2.8 3.8-5.3 4.3-5.6.5-.4.7-1.1.4-1.6-.3-.5.3-1.5 1.3-2.3 1-.8 1.7-1.7 1.4-2.2-.3-.4 0-.8.6-.8s.8-.5.5-1c-.3-.6-.1-1 .5-1s1.5-1 2-2.3c.5-1.2 3.2-6.3 6-11.2 6-10.7 13.4-25.3 14.5-28.6.4-1.3.8-2.6.9-2.9.7-1.7 5.6-17.7 5.6-18.3 0-.3-.7-.4-1.4-.1-.8.3-4.9 7.4-9.1 15.7-14.7 29.2-23.1 42.1-34.8 53.9-8.5 8.7-18.7 17.5-18.7 16.3 0-.4-.9.3-2 1.6-2.2 2.7-2.7 1.4-.6-1.6 1.5-2.2 4.8-8 7.9-13.8 1.1-2.1 2.2-3.6 2.4-3.3.3.2 0 1.4-.7 2.5-.6 1.2-.7 2.1-.3 2.1.5 0 1.4-1.4 2-3 .6-1.7.7-3 .2-3-.4 0-.6-.7-.2-1.6.3-.9.9-1.1 1.2-.6.3.5 1.6-1.2 2.8-3.9 2.6-5.8 2.2-6.4-.7-1.2-2.3 4.1-2.2 3.8 2.1-7.7 1.5-4.1 2.8-7 2.8-6.4.1.6-.6 3.1-1.4 5.5-.9 2.4-1.2 3.9-.6 3.4.5-.6 2.1-5.1 3.5-10 1.5-5 2.9-9.6 3.1-10.3.3-.7 0-1-.5-.7-.6.3-1 .1-1-.4 0-.6.5-1.1 1.1-1.1.5 0 .7-.5.4-1-.3-.6-.1-1 .4-1 .6 0 1.1-.5 1.1-1.1 0-.5-.6-.7-1.2-.3-.9.6-.9.3 0-.9.8-.9 1-2.2.6-2.8-.5-.8-.3-.9.6-.4 1 .6 1.2.4.7-.8-.3-.9-.1-1.9.5-2.3.7-.4.6-.9-.3-1.5-.8-.5-.9-.9-.3-.9.6 0 1-1 .9-2.3-.1-1.2.3-2.5.8-2.9.7-.4.6-1.2-.2-2.2-1-1.2-1-1.6-.2-1.6.7 0 1-.4.7-.9-.4-.5 0-1.2.6-1.4 1-.4.9-.6-.1-.6-1.1-.1-1.1-.4-.1-1.6 1-1.2 1-1.5 0-1.5s-1-.3 0-1.5 1-1.5-.1-1.5-1.1-.2-.1-.8c.8-.5 1-1.6.6-2.7-.5-1.1-.4-1.6.3-1.2.5.3 1 0 1-.8s-.3-1.2-.7-1c-.4.2-.7-.2-.7-1s.4-1.2.9-.9c.4.3.8 0 .8-.5 0-.6-.4-1.1-1-1.1-.5 0-1-1-.9-2.3 0-2.1.1-2.1.9-.2.7 1.4.9.4.8-3.7-.1-3.2.1-6.1.5-6.4.4-.4.2-1.3-.4-2.1-.6-.7-.7-1.3-.2-1.3.9 0 .9-1.6-.2-18-.7-9.8-1.1-13.5-1.5-13.5-.1 0-.3-1.6-.5-3.5-.1-1.9-.5-4.9-.9-6.5-.3-1.7-1.1-5.7-1.7-9-.6-3.3-2.6-10.8-4.5-16.7-1.9-5.9-3.4-10.9-3.2-11.1.2-.2-.5-1.1-1.5-2.1-.9-1-1.5-2.1-1.2-2.6.3-.5.1-1.1-.5-1.5-.6-.4-.8-1.1-.5-1.6.4-.5.1-.9-.5-.9s-.8-.5-.5-1c.3-.6.1-1-.5-1-.7 0-.9-.7-.6-1.6.4-1 .2-1.3-.6-.8s-.9.2-.5-1c.4-.9.3-1.5-.2-1.2-.5.3-1.2-.1-1.5-1-.4-1-.2-1.3.7-.9.6.4.4 0-.7-.9-1-.8-1.5-2-1-2.7.4-.8.3-1-.4-.5-1.1.6-1.6-.6-1.3-2.7 0-.4-.4-.7-1-.7-.5 0-.7-.5-.4-1 .3-.6.1-1-.4-1-.6 0-1.1-.6-1.1-1.3 0-.6-.9-2.3-2-3.7-1.1-1.4-2-3.3-2-4.2 0-.9-.3-1.8-.8-2-.4-.2-2.9-3.8-5.5-8.1-6.8-10.9-9.1-10.3-4 .9 1.4 3.3 2.8 7.7 3 9.9.2 2.2.7 6.2 1.2 9 1 5 .7 41.4-.2 47-.3 1.6-.8 6-1.1 9.7-1.2 13.2-6.4 32.1-12.4 44.3-4 8.2-18.8 31.1-21.6 33.4-2.1 1.7-2 .7.4-5.6 1.1-2.9 2.2-6.5 2.5-8 .2-1.5.9-5.1 1.4-7.8 1.1-5.2.8-32.8-.3-38-1.3-5.8-3.4-12.3-5.2-15.6-1.7-3.5-10.3-14.9-11.2-14.9-.2 0 .2.8.9 1.7 1.2 1.4 1 1.4-1.3-.1-2.8-1.8-3.9-3.3-1.5-2.1.6.4.3-.1-.7-.9-1.1-.9-2.6-1.6-3.5-1.6-.8 0-2.3-.8-3.3-1.7-1.6-1.4-2.1-1.5-2.7-.4-.5.8-1.4 1-2.1.6-1.5-.9-.6.9 1.7 3.6.7.9 2.2 5.8 3.3 11 1.1 5.2 2.5 10.5 3 11.9 1.7 4.5 2 8.3 2.1 24 0 14.7-.4 19.6-1.6 20.8-.2.3.1 1.2.8 2 1 1.3.9 1.4-.2.7-1.1-.6-1.3-.3-.9 1.3.4 1.2.2 2.2-.3 2.2s-.9 1.1-.9 2.5-.4 2.5-1 2.5c-.5 0-1 .5-1 1.1 0 .5.6.7 1.3.3.6-.4.3.2-.7 1.4-1.1 1.2-1.6 2.2-1.1 2.2.4 0 .2.6-.4 1.3-.6.8-1.2 2.3-1.4 3.4-.2 1.2-.8 2.8-1.5 3.5-.6.8-.9 1.8-.5 2.1.3.4.2.7-.4.7-.5 0-1 .6-1 1.3 0 3.3-9.9 18.4-18.2 27.7l-3.1 3.5 3-6c1.6-3.3 4-8.9 5.3-12.5 1.4-3.6 3.9-10.3 5.6-14.9 1.8-4.6 3-9 2.7-9.8-.3-.8-.1-1.1.4-.8.6.4.9-.3.6-1.7-.2-1.3.3-3.6 1.1-5.1.8-1.6 1.2-3.5.9-4.2-.2-.7-.2-1.6.2-1.9.3-.4.8-1.9 1-3.4.4-3.2-.6-2.6-1.2.9-.2 1.3-.5 2.5-.7 2.6-.1.2-.2.6-.4 1-.5 2.1-1.8 5.1-3.1 7.5-.8 1.6-1.3 2.8-1 2.8 1.1 0-9.8 19.9-14 25.6-6.2 8.3-21.4 24.4-23.1 24.4-.7 0-4.4 1.7-8.1 3.8-7.7 4.3-15.1 7.9-20.2 9.7l-3.6 1.3.4-6.6c.3-3.6 2.9-16.2 5.8-28.1 3-11.9 5.6-22.4 5.9-23.4 1-4.2 1.7-5.7 2.4-5.3.4.3.7-.5.6-1.7-.1-1.2.3-2.5.8-2.9 1.5-.9 1.8-3.9.4-3.2-.7.3-.1-.4 1.3-1.5 1.4-1.1 2.1-2.1 1.6-2.1s-.2-.8.5-1.8c1.3-1.6 1.3-1.6-.5-.2-1.8 1.4-1.9 1.4-.9-.5.6-1.1 1.2-2.3 1.2-2.7.4-2.1 1.4-3.8 2.4-3.8.5 0 .3.8-.6 1.8-1 1-1.4 2.2-1.1 2.5.4.4 1.3-.5 2.1-2 1.1-2.1 1.1-2.8.1-3.4-1-.7-1-1.1.1-2.1 1-1 1.2-1 .7-.1-.4.7-.2 1.3.5 1.3.6 0 .9-.8.6-2-.3-1.1 0-1.8.7-1.7.6.1 1-.4.8-1.1-.1-.6.2-1.2.6-1.2.5 0 1.4-1.6 2.2-3.5.8-1.9 1.7-3.5 2-3.5.4 0 1.2-1.2 1.9-2.6 1.3-2.9.4-5.6-1.1-3-.5.9-1.5 1.6-2.3 1.6-.7 0-3.1 2.3-5.3 5l-4 5.1.5-12.8c.3-7 .8-13.5 1.3-14.3.4-.8 1.3-3.8 2-6.7 1.1-4.8 1.4-5.2 4.3-5.5 6.1-.6 7.3-10.4 1.5-12.6-2.4-.9-2.8-1.4-2-2.9.5-1 1.7-7.2 2.6-13.8.9-6.6 2.3-16.6 3.1-22.3.8-5.6 1.5-10.7 1.5-11.3 0-.6.6-.7 1.3-.3.9.5.9.4.1-.5-1.1-1.2-.7-7.1.5-7.1.4 0 .7-1 .8-2.3.1-1.2.3-3.1.6-4.3.5-1.9 1.7-9.9 2.2-14.9.1-1.1 0-2.4-.3-3-.3-.5-.7-2.5-.9-4.4-.4-3.8-2-6.4-3.4-5.5-.5.3-.9.1-.9-.5 0-1.1-4.3-.1-7.9 1.9-2.9 1.5-6.7 5.3-6.3 6.2.1.5-.4.8-1.2.8-.8 0-2.6 1.4-4 3.1-1.4 1.7-2.6 2.8-2.6 2.5 0-.3-1.1.4-2.5 1.6-1.3 1.1-2.2 2.5-1.9 2.9.3.5-.2.6-1 .3-1.1-.4-1.6 0-1.6 1 0 .9-.3 1.5-.7 1.4-.8-.2-4.2 2.5-10 7.9-1.8 1.8-3.8 3.3-4.4 3.3-.6 0-.7.4-.4 1 .3.5 0 1-.8 1s-2.5 1.6-3.8 3.5c-1.3 1.9-2.8 3.5-3.3 3.5s.1-1.2 1.5-2.7c1.7-2 1.8-2.3.3-1-1.1.9-2.4 1.4-2.8 1-.4-.5-.7-.4-.6.2.6 3-.1 5.5-1.7 5.5-1.3 0-1.4-.3-.5-1.2.7-.7 1.2-1.6 1.2-2.1 0-.6-1.2.5-2.8 2.4-1.5 1.9-4.4 5.2-6.4 7.4-2.1 2.2-3.8 4.4-3.8 4.8 0 .5-.5.5-1.1.1-.8-.4-.8 0 0 1.5 1 1.8.9 2-.5 1.4-1.3-.5-1.5-.3-.9.8.7 1.2.6 1.2-.7.1-1.3-1-1.8-1-2.4-.1-.4.8-.3.9.4.5 2.4-1.5 1.1 1.1-1.9 3.7-1.7 1.5-2.8 2.7-2.5 2.7.3 0-.4 1-1.6 2.2-1.3 1.3-2.7 2.2-3.1 2-.5-.1-.6.2-.2.8.6 1-2.2 5.6-5.5 9.1-.8.9-3.3 3.7-5.5 6.4-2.2 2.6-5.2 6.2-6.7 7.9-1.5 1.7-2.8 3.5-2.8 3.9 0 .5-.4.6-.9.3-.8-.6-.8-2.2.3-10.1 1-6.5 1.5-10.7 2.2-17 .3-3.3.9-6.4 1.2-6.9.3-.5.1-.6-.5-.3-.5.3-2.2 3.2-3.8 6.4-1.6 3.2-3.2 6-3.5 6.3-.3.3-.6 1.2-.8 2-.2.8-1.2 2.4-2.2 3.5-1 1.1-3.8 5.8-6.2 10.5-5.4 10.4-10.8 19.9-11.7 20.4-.9.6-5.6-3.6-6.4-5.8-.4-1-1.2-1.4-1.8-1-.8.4-.9.3-.5-.5.4-.6 0-1.4-.8-1.7-.9-.3-1.6-1-1.6-1.5 0-1.6-4.9-6.1-5.9-5.4-.7.4-.8-.1-.4-1.2.3-1 .3-1.5-.2-1.1-.4.4-2-.6-3.5-2.2s-3-2.6-3.4-2.3c-.3.3-.6-.1-.6-1s-.6-1.7-1.3-1.7c-.7 0-3.5-1.1-6.3-2.4-4.9-2.4-9.2-2.5-10.6-.3-.4.7-.8.7-.8.2 0-.7-.3-.7-.8 0-.4.6-2.7 2-5.2 3.3-6.1 3-9.3 5.9-8.4 7.4.4.7.4 1-.1.6-.8-.8-5.5 4-8.2 8.4-1 1.6-2.1 2.8-2.5 2.8-.4 0-.8.6-.8 1.4 0 .8-.7 1.6-1.5 2-.8.3-1.5 1-1.5 1.7 0 1.7-4.1 7-5 6.4-.4-.3-6.3-8.3-13.1-17.7-26.2-36.8-41.2-56.1-53-67.9-6.3-6.3-8.9-9.5-8.9-11 0-.5-.5-.7-1-.4-.6.4-1 .3-.9-.2.3-1.8-.2-2.9-2.7-5.8-1.5-1.7-3.3-4.1-4.2-5.5-.9-1.4-2.8-4.1-4.3-6-1.4-1.9-3-5-3.4-6.8-.7-3.6-2.4-4.2-3.2-1.2zM361 69.4c0 .2-.8 1-1.7 1.7-1.6 1.3-1.7 1.2-.4-.4 1.3-1.6 2.1-2.1 2.1-1.3zm-43.1 37.7c-4.3 3.8-4.7 3.7-1.2-.5 1.5-1.8 3.2-3.1 3.6-2.9.5.3-.6 1.8-2.4 3.4zm-3.9 4.3c0 .2-.7.7-1.6 1-.8.3-1.2.2-.9-.4.6-1 2.5-1.4 2.5-.6zm-39.2 18c-.1 1.4-.5 2.3-.9 2-.7-.4 0-4.4.7-4.4.2 0 .3 1.1.2 2.4z"/><path d="M494.3 311c-.7 1-.9 2.1-.5 2.4.4.2 1.2-.7 1.9-2 1.3-2.9.3-3.2-1.4-.4zM490.5 318c-.3.6.1.7.9.4 1.8-.7 2.1-1.4.7-1.4-.6 0-1.3.4-1.6 1z"/></svg>